<svg xmlns="http://www.w3.org/2000/svg" viewBox="0 0 600 300">
  <rect width="600" height="300" fill="#f0f9ff" rx="12"/>
  <!-- Sprechblasen -->
  <rect x="60" y="60" width="180" height="110" rx="16" fill="#1a3a5c" opacity="0.12"/>
  <polygon points="90,170 130,170 90,200" fill="#1a3a5c" opacity="0.12"/>
  <rect x="80" y="78" width="140" height="14" rx="7" fill="#1a3a5c" opacity="0.2"/>
  <rect x="80" y="102" width="110" height="14" rx="7" fill="#1a3a5c" opacity="0.15"/>
  <rect x="80" y="126" width="125" height="14" rx="7" fill="#1a3a5c" opacity="0.15"/>

  <rect x="290" y="40" width="190" height="120" rx="16" fill="#0369a1" opacity="0.14"/>
  <polygon points="450,160 490,160 490,188" fill="#0369a1" opacity="0.14"/>
  <rect x="310" y="58" width="150" height="14" rx="7" fill="#0369a1" opacity="0.22"/>
  <rect x="310" y="82" width="120" height="14" rx="7" fill="#0369a1" opacity="0.16"/>
  <rect x="310" y="106" width="135" height="14" rx="7" fill="#0369a1" opacity="0.16"/>

  <rect x="130" y="185" width="160" height="80" rx="16" fill="#16a34a" opacity="0.12"/>
  <polygon points="180,185 210,185 170,158" fill="#16a34a" opacity="0.12"/>
  <rect x="148" y="205" width="120" height="12" rx="6" fill="#16a34a" opacity="0.2"/>
  <rect x="148" y="226" width="95" height="12" rx="6" fill="#16a34a" opacity="0.15"/>

  <!-- Telefon-Symbol rechts -->
  <circle cx="510" cy="210" r="52" fill="#1a3a5c" opacity="0.08"/>
  <rect x="490" y="192" width="40" height="62" rx="8" fill="#1a3a5c" opacity="0.18"/>
  <rect x="496" y="200" width="28" height="38" rx="4" fill="white" opacity="0.5"/>
  <circle cx="510" cy="245" r="5" fill="#1a3a5c" opacity="0.25"/>

  <!-- Label -->
  <rect x="185" y="260" width="230" height="30" rx="15" fill="#0369a1" opacity="0.1"/>
  <text x="300" y="280" text-anchor="middle" font-size="13" fill="#0c4a6e" font-family="sans-serif">Wir sind für Sie da · Platzhalter</text>
</svg>
